# Blender v2.80 (sub 75) OBJ File: 'sphere.blend'
# www.blender.org
mtllib sphere.mtl
o Sphere
v 0.000000 0.353553 -0.353553
v 0.000000 0.191342 -0.461940
v 0.000000 -0.191342 -0.461940
v 0.000000 -0.461940 -0.191342
v 0.073223 0.461940 -0.176777
v 0.135299 0.353553 -0.326641
v 0.176777 0.191342 -0.426777
v 0.191342 -0.000000 -0.461940
v 0.176777 -0.191342 -0.426777
v 0.135299 -0.353553 -0.326641
v 0.073223 -0.461940 -0.176777
v 0.135299 0.461940 -0.135299
v 0.250000 0.353553 -0.250000
v 0.326641 0.191342 -0.326641
v 0.353553 -0.000000 -0.353553
v 0.326641 -0.191342 -0.326641
v 0.250000 -0.353553 -0.250000
v 0.135299 -0.461940 -0.135299
v 0.176777 0.461940 -0.073223
v 0.326641 0.353553 -0.135299
v 0.426777 0.191342 -0.176777
v 0.461940 -0.000000 -0.191342
v 0.426777 -0.191342 -0.176777
v 0.326641 -0.353553 -0.135299
v 0.176777 -0.461940 -0.073223
v 0.191342 0.461940 -0.000000
v 0.353553 0.353553 -0.000000
v 0.461940 0.191342 -0.000000
v 0.500000 -0.000000 -0.000000
v 0.461940 -0.191342 -0.000000
v 0.353553 -0.353553 -0.000000
v 0.191342 -0.461940 -0.000000
v 0.176777 0.461940 0.073223
v 0.326641 0.353553 0.135299
v 0.426777 0.191342 0.176777
v 0.461940 -0.000000 0.191342
v 0.426777 -0.191342 0.176777
v 0.326641 -0.353553 0.135299
v 0.176777 -0.461940 0.073223
v 0.135299 0.461940 0.135299
v 0.250000 0.353553 0.250000
v 0.326641 0.191342 0.326641
v 0.353553 -0.000000 0.353553
v 0.326641 -0.191342 0.326641
v 0.250000 -0.353553 0.250000
v 0.135299 -0.461940 0.135299
v 0.073223 0.461940 0.176777
v 0.135299 0.353553 0.326641
v 0.176777 0.191342 0.426777
v 0.191342 -0.000000 0.461940
v 0.176777 -0.191342 0.426777
v 0.135299 -0.353553 0.326641
v 0.073223 -0.461940 0.176777
v -0.000000 0.461940 0.191342
v -0.000000 0.353553 0.353553
v -0.000000 0.191342 0.461940
v -0.000000 -0.000000 0.500000
v -0.000000 -0.191342 0.461940
v -0.000000 -0.353553 0.353553
v -0.000000 -0.461940 0.191342
v -0.073223 0.461940 0.176777
v -0.135299 0.353553 0.326640
v -0.176777 0.191342 0.426776
v -0.191342 -0.000000 0.461939
v -0.176777 -0.191342 0.426776
v -0.135299 -0.353553 0.326640
v -0.073223 -0.461940 0.176777
v -0.135299 0.461940 0.135299
v -0.250000 0.353553 0.250000
v -0.326641 0.191342 0.326640
v -0.353553 -0.000000 0.353553
v -0.326641 -0.191342 0.326640
v -0.250000 -0.353553 0.250000
v -0.135299 -0.461940 0.135299
v -0.176777 0.461940 0.073223
v -0.326641 0.353553 0.135299
v -0.426777 0.191342 0.176776
v -0.461940 -0.000000 0.191341
v -0.426777 -0.191342 0.176776
v -0.326641 -0.353553 0.135299
v -0.176777 -0.461940 0.073223
v -0.191342 0.461940 -0.000000
v -0.353553 0.353553 -0.000000
v -0.461940 0.191342 -0.000000
v -0.500000 -0.000000 -0.000000
v -0.461940 -0.191342 -0.000000
v -0.353553 -0.353553 -0.000000
v -0.191342 -0.461940 -0.000000
v -0.176777 0.461940 -0.073223
v -0.326641 0.353553 -0.135299
v -0.426776 0.191342 -0.176777
v -0.461939 -0.000000 -0.191342
v -0.426776 -0.191342 -0.176777
v -0.326641 -0.353553 -0.135299
v -0.176777 -0.461940 -0.073223
v -0.135299 0.461940 -0.135299
v -0.250000 0.353553 -0.250000
v -0.326640 0.191342 -0.326641
v -0.353553 -0.000000 -0.353554
v -0.326640 -0.191342 -0.326641
v -0.250000 -0.353553 -0.250000
v -0.135299 -0.461940 -0.135299
v -0.073223 0.461940 -0.176777
v -0.135299 0.353553 -0.326641
v -0.176776 0.191342 -0.426777
v -0.191341 -0.000000 -0.461940
v -0.176776 -0.191342 -0.426777
v -0.135299 -0.353553 -0.326641
v -0.073223 -0.461940 -0.176777
v -0.000000 0.500000 -0.000000
v 0.000000 0.461940 -0.191342
v 0.000000 -0.000000 -0.500000
v 0.000000 -0.353553 -0.353553
v 0.000000 -0.500000 -0.000000
vt 0.750000 0.750000
vt 0.750000 0.875000
vt 0.687500 0.875000
vt 0.687500 0.750000
vt 0.750000 0.125000
vt 0.750000 0.250000
vt 0.687500 0.250000
vt 0.687500 0.125000
vt 0.750000 0.375000
vt 0.750000 0.500000
vt 0.687500 0.500000
vt 0.687500 0.375000
vt 0.750000 0.625000
vt 0.687500 0.625000
vt 0.718750 1.000000
vt 0.718750 0.000000
vt 0.625000 0.500000
vt 0.625000 0.375000
vt 0.625000 0.750000
vt 0.625000 0.625000
vt 0.656250 1.000000
vt 0.625000 0.875000
vt 0.656250 0.000000
vt 0.625000 0.125000
vt 0.625000 0.250000
vt 0.593750 0.000000
vt 0.562500 0.125000
vt 0.562500 0.375000
vt 0.562500 0.250000
vt 0.562500 0.625000
vt 0.562500 0.500000
vt 0.562500 0.875000
vt 0.562500 0.750000
vt 0.593750 1.000000
vt 0.500000 0.625000
vt 0.500000 0.500000
vt 0.500000 0.875000
vt 0.500000 0.750000
vt 0.500000 0.250000
vt 0.500000 0.125000
vt 0.500000 0.375000
vt 0.531250 1.000000
vt 0.531250 0.000000
vt 0.437500 0.250000
vt 0.437500 0.125000
vt 0.437500 0.500000
vt 0.437500 0.375000
vt 0.437500 0.750000
vt 0.437500 0.625000
vt 0.468750 1.000000
vt 0.437500 0.875000
vt 0.468750 0.000000
vt 0.375000 0.750000
vt 0.375000 0.625000
vt 0.406250 1.000000
vt 0.375000 0.875000
vt 0.406250 0.000000
vt 0.375000 0.125000
vt 0.375000 0.375000
vt 0.375000 0.250000
vt 0.375000 0.500000
vt 0.343750 0.000000
vt 0.312500 0.125000
vt 0.312500 0.375000
vt 0.312500 0.250000
vt 0.312500 0.625000
vt 0.312500 0.500000
vt 0.312500 0.875000
vt 0.312500 0.750000
vt 0.343750 1.000000
vt 0.250000 0.875000
vt 0.250000 0.750000
vt 0.250000 0.250000
vt 0.250000 0.125000
vt 0.250000 0.500000
vt 0.250000 0.375000
vt 0.250000 0.625000
vt 0.281250 1.000000
vt 0.281250 0.000000
vt 0.187500 0.250000
vt 0.187500 0.125000
vt 0.187500 0.500000
vt 0.187500 0.375000
vt 0.187500 0.750000
vt 0.187500 0.625000
vt 0.218750 1.000000
vt 0.187500 0.875000
vt 0.218750 0.000000
vt 0.156250 1.000000
vt 0.125000 0.875000
vt 0.156250 0.000000
vt 0.125000 0.125000
vt 0.125000 0.375000
vt 0.125000 0.250000
vt 0.125000 0.625000
vt 0.125000 0.500000
vt 0.125000 0.750000
vt 0.062500 0.375000
vt 0.062500 0.250000
vt 0.062500 0.625000
vt 0.062500 0.500000
vt 0.062500 0.875000
vt 0.062500 0.750000
vt 0.062500 0.125000
vt 0.093750 1.000000
vt 0.093750 0.000000
vt 0.000000 0.250000
vt 0.000000 0.125000
vt 0.000000 0.500000
vt 0.000000 0.375000
vt 0.000000 0.750000
vt 0.000000 0.625000
vt 0.031250 1.000000
vt 0.000000 0.875000
vt 0.031250 0.000000
vt 1.000000 0.375000
vt 1.000000 0.500000
vt 0.937500 0.500000
vt 0.937500 0.375000
vt 1.000000 0.625000
vt 1.000000 0.750000
vt 0.937500 0.750000
vt 0.937500 0.625000
vt 1.000000 0.875000
vt 0.968750 1.000000
vt 0.937500 0.875000
vt 0.968750 0.000000
vt 1.000000 0.125000
vt 0.937500 0.125000
vt 1.000000 0.250000
vt 0.937500 0.250000
vt 0.906250 0.000000
vt 0.875000 0.125000
vt 0.875000 0.375000
vt 0.875000 0.250000
vt 0.875000 0.625000
vt 0.875000 0.500000
vt 0.875000 0.875000
vt 0.875000 0.750000
vt 0.906250 1.000000
vt 0.812500 0.625000
vt 0.812500 0.500000
vt 0.812500 0.875000
vt 0.812500 0.750000
vt 0.812500 0.250000
vt 0.812500 0.125000
vt 0.812500 0.375000
vt 0.843750 1.000000
vt 0.843750 0.000000
vt 0.781250 1.000000
vt 0.781250 0.000000
vn 0.0000 0.6952 -0.7188
vn 0.0000 0.9152 -0.4031
vn 0.1542 0.9152 -0.3724
vn 0.2751 0.6952 -0.6641
vn 0.0000 -0.9152 -0.4031
vn 0.0000 -0.6952 -0.7188
vn 0.2751 -0.6952 -0.6641
vn 0.1542 -0.9152 -0.3724
vn 0.0000 -0.3743 -0.9273
vn 0.0000 0.0000 -1.0000
vn 0.3827 0.0000 -0.9239
vn 0.3548 -0.3743 -0.8567
vn 0.0000 0.3743 -0.9273
vn 0.3548 0.3743 -0.8567
vn 0.0000 1.0000 0.0000
vn 0.0000 -1.0000 0.0000
vn 0.7071 0.0000 -0.7071
vn 0.6557 -0.3743 -0.6557
vn 0.5083 0.6952 -0.5083
vn 0.6557 0.3743 -0.6557
vn 0.2850 0.9152 -0.2850
vn 0.2850 -0.9152 -0.2850
vn 0.5083 -0.6952 -0.5083
vn 0.3724 -0.9152 -0.1542
vn 0.8567 -0.3743 -0.3548
vn 0.6641 -0.6952 -0.2751
vn 0.8567 0.3743 -0.3548
vn 0.9239 0.0000 -0.3827
vn 0.3724 0.9152 -0.1542
vn 0.6641 0.6952 -0.2751
vn 0.9273 0.3743 0.0000
vn 1.0000 0.0000 0.0000
vn 0.4031 0.9152 0.0000
vn 0.7188 0.6952 0.0000
vn 0.7188 -0.6952 0.0000
vn 0.4031 -0.9152 0.0000
vn 0.9273 -0.3743 0.0000
vn 0.6641 -0.6952 0.2751
vn 0.3724 -0.9152 0.1542
vn 0.9239 0.0000 0.3827
vn 0.8567 -0.3743 0.3548
vn 0.6641 0.6952 0.2751
vn 0.8567 0.3743 0.3548
vn 0.3724 0.9152 0.1542
vn 0.5083 0.6952 0.5083
vn 0.6557 0.3743 0.6557
vn 0.2850 0.9152 0.2850
vn 0.2850 -0.9152 0.2850
vn 0.6557 -0.3743 0.6557
vn 0.5083 -0.6952 0.5083
vn 0.7071 0.0000 0.7071
vn 0.1542 -0.9152 0.3724
vn 0.3548 -0.3743 0.8567
vn 0.2751 -0.6952 0.6641
vn 0.3548 0.3743 0.8567
vn 0.3827 0.0000 0.9239
vn 0.1542 0.9152 0.3724
vn 0.2751 0.6952 0.6641
vn 0.0000 0.9152 0.4031
vn 0.0000 0.6952 0.7188
vn 0.0000 -0.6952 0.7188
vn 0.0000 -0.9152 0.4031
vn 0.0000 0.0000 1.0000
vn 0.0000 -0.3743 0.9273
vn 0.0000 0.3743 0.9273
vn -0.2751 -0.6952 0.6641
vn -0.1542 -0.9152 0.3724
vn -0.3827 0.0000 0.9239
vn -0.3548 -0.3743 0.8567
vn -0.2751 0.6952 0.6641
vn -0.3548 0.3743 0.8567
vn -0.1542 0.9152 0.3724
vn -0.2850 0.9152 0.2850
vn -0.2850 -0.9152 0.2850
vn -0.6557 -0.3743 0.6557
vn -0.5083 -0.6952 0.5083
vn -0.6557 0.3743 0.6557
vn -0.7071 0.0000 0.7071
vn -0.5083 0.6952 0.5083
vn -0.8567 -0.3743 0.3548
vn -0.6641 -0.6952 0.2751
vn -0.8567 0.3743 0.3548
vn -0.9239 0.0000 0.3827
vn -0.3724 0.9152 0.1542
vn -0.6641 0.6952 0.2751
vn -0.3724 -0.9152 0.1542
vn -0.7188 -0.6952 0.0000
vn -0.4031 -0.9152 0.0000
vn -1.0000 0.0000 0.0000
vn -0.9273 -0.3743 0.0000
vn -0.7188 0.6952 0.0000
vn -0.9273 0.3743 0.0000
vn -0.4031 0.9152 0.0000
vn -0.9239 0.0000 -0.3827
vn -0.8567 -0.3743 -0.3548
vn -0.6641 0.6952 -0.2751
vn -0.8567 0.3743 -0.3548
vn -0.3724 0.9152 -0.1542
vn -0.3724 -0.9152 -0.1542
vn -0.6641 -0.6952 -0.2751
vn -0.2850 -0.9152 -0.2850
vn -0.6557 -0.3743 -0.6557
vn -0.5083 -0.6952 -0.5083
vn -0.6557 0.3743 -0.6557
vn -0.7071 0.0000 -0.7071
vn -0.2850 0.9152 -0.2850
vn -0.5083 0.6952 -0.5083
vn -0.3548 0.3743 -0.8567
vn -0.3827 0.0000 -0.9239
vn -0.1542 0.9152 -0.3724
vn -0.2751 0.6952 -0.6641
vn -0.2751 -0.6952 -0.6641
vn -0.1542 -0.9152 -0.3724
vn -0.3548 -0.3743 -0.8567
usemtl None
s 1
f 1/1/1 111/2/2 5/3/3 6/4/4
f 4/5/5 113/6/6 10/7/7 11/8/8
f 3/9/9 112/10/10 8/11/11 9/12/12
f 2/13/13 1/1/1 6/4/4 7/14/14
f 111/2/2 110/15/15 5/3/3
f 114/16/16 4/5/5 11/8/8
f 113/6/6 3/9/9 9/12/12 10/7/7
f 112/10/10 2/13/13 7/14/14 8/11/11
f 9/12/12 8/11/11 15/17/17 16/18/18
f 7/14/14 6/4/4 13/19/19 14/20/20
f 5/3/3 110/21/15 12/22/21
f 114/23/16 11/8/8 18/24/22
f 10/7/7 9/12/12 16/18/18 17/25/23
f 8/11/11 7/14/14 14/20/20 15/17/17
f 6/4/4 5/3/3 12/22/21 13/19/19
f 11/8/8 10/7/7 17/25/23 18/24/22
f 114/26/16 18/24/22 25/27/24
f 17/25/23 16/18/18 23/28/25 24/29/26
f 15/17/17 14/20/20 21/30/27 22/31/28
f 13/19/19 12/22/21 19/32/29 20/33/30
f 18/24/22 17/25/23 24/29/26 25/27/24
f 16/18/18 15/17/17 22/31/28 23/28/25
f 14/20/20 13/19/19 20/33/30 21/30/27
f 12/22/21 110/34/15 19/32/29
f 22/31/28 21/30/27 28/35/31 29/36/32
f 20/33/30 19/32/29 26/37/33 27/38/34
f 25/27/24 24/29/26 31/39/35 32/40/36
f 23/28/25 22/31/28 29/36/32 30/41/37
f 21/30/27 20/33/30 27/38/34 28/35/31
f 19/32/29 110/42/15 26/37/33
f 114/43/16 25/27/24 32/40/36
f 24/29/26 23/28/25 30/41/37 31/39/35
f 32/40/36 31/39/35 38/44/38 39/45/39
f 30/41/37 29/36/32 36/46/40 37/47/41
f 28/35/31 27/38/34 34/48/42 35/49/43
f 26/37/33 110/50/15 33/51/44
f 114/52/16 32/40/36 39/45/39
f 31/39/35 30/41/37 37/47/41 38/44/38
f 29/36/32 28/35/31 35/49/43 36/46/40
f 27/38/34 26/37/33 33/51/44 34/48/42
f 35/49/43 34/48/42 41/53/45 42/54/46
f 33/51/44 110/55/15 40/56/47
f 114/57/16 39/45/39 46/58/48
f 38/44/38 37/47/41 44/59/49 45/60/50
f 36/46/40 35/49/43 42/54/46 43/61/51
f 34/48/42 33/51/44 40/56/47 41/53/45
f 39/45/39 38/44/38 45/60/50 46/58/48
f 37/47/41 36/46/40 43/61/51 44/59/49
f 114/62/16 46/58/48 53/63/52
f 45/60/50 44/59/49 51/64/53 52/65/54
f 43/61/51 42/54/46 49/66/55 50/67/56
f 41/53/45 40/56/47 47/68/57 48/69/58
f 46/58/48 45/60/50 52/65/54 53/63/52
f 44/59/49 43/61/51 50/67/56 51/64/53
f 42/54/46 41/53/45 48/69/58 49/66/55
f 40/56/47 110/70/15 47/68/57
f 48/69/58 47/68/57 54/71/59 55/72/60
f 53/63/52 52/65/54 59/73/61 60/74/62
f 51/64/53 50/67/56 57/75/63 58/76/64
f 49/66/55 48/69/58 55/72/60 56/77/65
f 47/68/57 110/78/15 54/71/59
f 114/79/16 53/63/52 60/74/62
f 52/65/54 51/64/53 58/76/64 59/73/61
f 50/67/56 49/66/55 56/77/65 57/75/63
f 60/74/62 59/73/61 66/80/66 67/81/67
f 58/76/64 57/75/63 64/82/68 65/83/69
f 56/77/65 55/72/60 62/84/70 63/85/71
f 54/71/59 110/86/15 61/87/72
f 114/88/16 60/74/62 67/81/67
f 59/73/61 58/76/64 65/83/69 66/80/66
f 57/75/63 56/77/65 63/85/71 64/82/68
f 55/72/60 54/71/59 61/87/72 62/84/70
f 61/87/72 110/89/15 68/90/73
f 114/91/16 67/81/67 74/92/74
f 66/80/66 65/83/69 72/93/75 73/94/76
f 64/82/68 63/85/71 70/95/77 71/96/78
f 62/84/70 61/87/72 68/90/73 69/97/79
f 67/81/67 66/80/66 73/94/76 74/92/74
f 65/83/69 64/82/68 71/96/78 72/93/75
f 63/85/71 62/84/70 69/97/79 70/95/77
f 73/94/76 72/93/75 79/98/80 80/99/81
f 71/96/78 70/95/77 77/100/82 78/101/83
f 69/97/79 68/90/73 75/102/84 76/103/85
f 74/92/74 73/94/76 80/99/81 81/104/86
f 72/93/75 71/96/78 78/101/83 79/98/80
f 70/95/77 69/97/79 76/103/85 77/100/82
f 68/90/73 110/105/15 75/102/84
f 114/106/16 74/92/74 81/104/86
f 81/104/86 80/99/81 87/107/87 88/108/88
f 79/98/80 78/101/83 85/109/89 86/110/90
f 77/100/82 76/103/85 83/111/91 84/112/92
f 75/102/84 110/113/15 82/114/93
f 114/115/16 81/104/86 88/108/88
f 80/99/81 79/98/80 86/110/90 87/107/87
f 78/101/83 77/100/82 84/112/92 85/109/89
f 76/103/85 75/102/84 82/114/93 83/111/91
f 86/116/90 85/117/89 92/118/94 93/119/95
f 84/120/92 83/121/91 90/122/96 91/123/97
f 82/124/93 110/125/15 89/126/98
f 114/127/16 88/128/88 95/129/99
f 87/130/87 86/116/90 93/119/95 94/131/100
f 85/117/89 84/120/92 91/123/97 92/118/94
f 83/121/91 82/124/93 89/126/98 90/122/96
f 88/128/88 87/130/87 94/131/100 95/129/99
f 114/132/16 95/129/99 102/133/101
f 94/131/100 93/119/95 100/134/102 101/135/103
f 92/118/94 91/123/97 98/136/104 99/137/105
f 90/122/96 89/126/98 96/138/106 97/139/107
f 95/129/99 94/131/100 101/135/103 102/133/101
f 93/119/95 92/118/94 99/137/105 100/134/102
f 91/123/97 90/122/96 97/139/107 98/136/104
f 89/126/98 110/140/15 96/138/106
f 99/137/105 98/136/104 105/141/108 106/142/109
f 97/139/107 96/138/106 103/143/110 104/144/111
f 102/133/101 101/135/103 108/145/112 109/146/113
f 100/134/102 99/137/105 106/142/109 107/147/114
f 98/136/104 97/139/107 104/144/111 105/141/108
f 96/138/106 110/148/15 103/143/110
f 114/149/16 102/133/101 109/146/113
f 101/135/103 100/134/102 107/147/114 108/145/112
f 109/146/113 108/145/112 113/6/6 4/5/5
f 107/147/114 106/142/109 112/10/10 3/9/9
f 105/141/108 104/144/111 1/1/1 2/13/13
f 103/143/110 110/150/15 111/2/2
f 114/151/16 109/146/113 4/5/5
f 108/145/112 107/147/114 3/9/9 113/6/6
f 106/142/109 105/141/108 2/13/13 112/10/10
f 104/144/111 103/143/110 111/2/2 1/1/1
