# Blender v3.0.0 OBJ File: 'cube.blend'
# www.blender.org
mtllib cube.mtl
o Cube
v 1.000000 1.000000 -1.000000
v 1.000000 -1.000000 -1.000000
v 1.000000 1.000000 1.000000
v 1.000000 -1.000000 1.000000
v -1.000000 1.000000 -1.000000
v -1.000000 -1.000000 -1.000000
v -1.000000 1.000000 1.000000
v -1.000000 -1.000000 1.000000
vt 0.749957 0.375043
vt 0.999913 0.625000
vt 0.749957 0.625000
vt 0.000087 0.625000
vt 0.250043 0.375043
vt 0.250043 0.625000
vt 0.250043 0.125087
vt 0.500000 0.375043
vt 0.500000 0.625000
vt 0.500000 0.874957
vt 0.999913 0.375043
vt 0.000087 0.375043
vt 0.500000 0.125087
vt 0.250043 0.874957
vn 0.0000 1.0000 0.0000
vn 0.0000 0.0000 1.0000
vn -1.0000 0.0000 0.0000
vn 0.0000 -1.0000 0.0000
vn 1.0000 0.0000 0.0000
vn 0.0000 0.0000 -1.0000
usemtl Material
s off
f 5/1/1 3/2/1 1/3/1
f 3/4/2 8/5/2 4/6/2
f 7/7/3 6/8/3 8/5/3
f 2/9/4 8/5/4 6/8/4
f 1/10/5 4/6/5 2/9/5
f 5/1/6 2/9/6 6/8/6
f 5/1/1 7/11/1 3/2/1
f 3/4/2 7/12/2 8/5/2
f 7/7/3 5/13/3 6/8/3
f 2/9/4 4/6/4 8/5/4
f 1/10/5 3/14/5 4/6/5
f 5/1/6 1/3/6 2/9/6
