# Blender v3.0.0 OBJ File: 'sphere-sd.blend'
# www.blender.org
mtllib sphere-sd.mtl
o Sphere
v 0.000000 -0.382683 -0.923880
v 0.224936 0.923880 -0.309597
v 0.415627 0.707107 -0.572061
v 0.543043 0.382683 -0.747434
v 0.587785 -0.000000 -0.809017
v 0.543043 -0.382683 -0.747434
v 0.415627 -0.707107 -0.572061
v 0.224936 -0.923880 -0.309597
v 0.363954 0.923880 -0.118256
v 0.672499 0.707107 -0.218508
v 0.878662 0.382683 -0.285494
v 0.951057 -0.000000 -0.309017
v 0.878662 -0.382683 -0.285494
v 0.672499 -0.707107 -0.218508
v 0.363954 -0.923880 -0.118256
v 0.363954 0.923880 0.118256
v 0.672499 0.707107 0.218508
v 0.878662 0.382683 0.285495
v 0.951057 -0.000000 0.309017
v 0.878662 -0.382683 0.285495
v 0.672499 -0.707107 0.218508
v 0.363954 -0.923880 0.118256
v 0.224936 0.923880 0.309598
v 0.415627 0.707107 0.572062
v 0.543043 0.382683 0.747434
v 0.587785 -0.000000 0.809017
v 0.543043 -0.382683 0.747434
v 0.415627 -0.707107 0.572062
v 0.224936 -0.923880 0.309598
v 0.000000 0.923880 0.382684
v 0.000000 0.707107 0.707107
v 0.000000 0.382683 0.923880
v 0.000000 -0.000000 1.000000
v -0.000000 -0.382683 0.923880
v 0.000000 -0.707107 0.707107
v -0.000000 -0.923880 0.382684
v -0.224936 0.923880 0.309598
v -0.415627 0.707107 0.572062
v -0.543043 0.382683 0.747434
v -0.587785 -0.000000 0.809017
v -0.543043 -0.382683 0.747434
v -0.415627 -0.707107 0.572062
v -0.224936 -0.923880 0.309598
v -0.000000 1.000000 0.000000
v -0.363954 0.923880 0.118256
v -0.672499 0.707107 0.218508
v -0.878662 0.382683 0.285495
v -0.951057 -0.000000 0.309017
v -0.878662 -0.382683 0.285495
v -0.672499 -0.707107 0.218508
v -0.363954 -0.923880 0.118256
v -0.363954 0.923880 -0.118256
v -0.672499 0.707107 -0.218508
v -0.878662 0.382683 -0.285494
v -0.951057 -0.000000 -0.309017
v -0.878662 -0.382683 -0.285494
v -0.672499 -0.707107 -0.218508
v -0.363954 -0.923880 -0.118256
v -0.224936 0.923880 -0.309597
v -0.415627 0.707107 -0.572061
v -0.543043 0.382683 -0.747434
v -0.587785 -0.000000 -0.809017
v -0.543043 -0.382683 -0.747434
v -0.415627 -0.707107 -0.572061
v -0.224936 -0.923880 -0.309597
v 0.000000 -1.000000 0.000000
v -0.000000 0.923880 -0.382683
v -0.000000 0.707107 -0.707107
v -0.000000 0.382683 -0.923880
v -0.000000 -0.000000 -1.000000
v -0.000000 -0.707107 -0.707107
v -0.000000 -0.923880 -0.382684
vt 0.700000 0.625000
vt 0.700000 0.750000
vt 0.600000 0.750000
vt 0.600000 0.625000
vt 0.700000 0.875000
vt 0.650000 1.000000
vt 0.600000 0.875000
vt 0.650000 0.000000
vt 0.700000 0.125000
vt 0.600000 0.125000
vt 0.700000 0.250000
vt 0.700000 0.375000
vt 0.600000 0.375000
vt 0.600000 0.250000
vt 0.700000 0.500000
vt 0.600000 0.500000
vt 0.500000 0.375000
vt 0.500000 0.250000
vt 0.500000 0.625000
vt 0.500000 0.500000
vt 0.500000 0.875000
vt 0.500000 0.750000
vt 0.500000 0.125000
vt 0.550000 1.000000
vt 0.550000 0.000000
vt 0.400000 0.250000
vt 0.400000 0.125000
vt 0.400000 0.500000
vt 0.400000 0.375000
vt 0.400000 0.750000
vt 0.400000 0.625000
vt 0.450000 1.000000
vt 0.400000 0.875000
vt 0.450000 0.000000
vt 0.300000 0.500000
vt 0.300000 0.375000
vt 0.300000 0.750000
vt 0.300000 0.625000
vt 0.350000 1.000000
vt 0.300000 0.875000
vt 0.350000 0.000000
vt 0.300000 0.125000
vt 0.300000 0.250000
vt 0.250000 0.000000
vt 0.200000 0.125000
vt 0.200000 0.375000
vt 0.200000 0.250000
vt 0.200000 0.625000
vt 0.200000 0.500000
vt 0.200000 0.875000
vt 0.200000 0.750000
vt 0.250000 1.000000
vt 0.100000 0.625000
vt 0.100000 0.500000
vt 0.100000 0.875000
vt 0.100000 0.750000
vt 0.100000 0.250000
vt 0.100000 0.125000
vt 0.100000 0.375000
vt 0.150000 1.000000
vt 0.150000 0.000000
vt 0.000000 0.250000
vt 0.000000 0.125000
vt 0.000000 0.500000
vt 0.000000 0.375000
vt 0.000000 0.750000
vt 0.000000 0.625000
vt 0.050000 1.000000
vt 0.000000 0.875000
vt 0.050000 0.000000
vt 1.000000 0.625000
vt 1.000000 0.750000
vt 0.900000 0.750000
vt 0.900000 0.625000
vt 1.000000 0.875000
vt 0.950000 1.000000
vt 0.900000 0.875000
vt 0.950000 0.000000
vt 1.000000 0.125000
vt 0.900000 0.125000
vt 1.000000 0.250000
vt 1.000000 0.375000
vt 0.900000 0.375000
vt 0.900000 0.250000
vt 1.000000 0.500000
vt 0.900000 0.500000
vt 0.850000 0.000000
vt 0.800000 0.125000
vt 0.800000 0.375000
vt 0.800000 0.250000
vt 0.800000 0.625000
vt 0.800000 0.500000
vt 0.800000 0.875000
vt 0.800000 0.750000
vt 0.850000 1.000000
vt 0.750000 1.000000
vt 0.750000 0.000000
vn 0.0000 0.3697 -0.9291
vn 0.0000 0.6883 -0.7254
vn 0.4264 0.6883 -0.5869
vn 0.5461 0.3697 -0.7517
vn 0.0000 0.9098 -0.4149
vn 0.0000 1.0000 0.0000
vn 0.2439 0.9098 -0.3356
vn 0.0000 -1.0000 0.0000
vn 0.0000 -0.9098 -0.4149
vn 0.2439 -0.9098 -0.3356
vn 0.0000 -0.6883 -0.7254
vn 0.0000 -0.3697 -0.9291
vn 0.5461 -0.3697 -0.7517
vn 0.4264 -0.6883 -0.5869
vn 0.0000 0.0000 -1.0000
vn 0.5878 0.0000 -0.8090
vn 0.8837 -0.3697 -0.2871
vn 0.6899 -0.6883 -0.2242
vn 0.8837 0.3697 -0.2871
vn 0.9510 0.0000 -0.3090
vn 0.3946 0.9098 -0.1282
vn 0.6899 0.6883 -0.2242
vn 0.3946 -0.9098 -0.1282
vn 0.6899 -0.6883 0.2242
vn 0.3946 -0.9098 0.1282
vn 0.9510 0.0000 0.3090
vn 0.8837 -0.3697 0.2871
vn 0.6899 0.6883 0.2242
vn 0.8837 0.3697 0.2871
vn 0.3946 0.9098 0.1282
vn 0.5878 0.0000 0.8090
vn 0.5461 -0.3697 0.7517
vn 0.4264 0.6883 0.5869
vn 0.5461 0.3697 0.7517
vn 0.2439 0.9098 0.3356
vn 0.2439 -0.9098 0.3356
vn 0.4264 -0.6883 0.5869
vn 0.0000 -0.9098 0.4149
vn 0.0000 -0.3697 0.9291
vn 0.0000 -0.6883 0.7254
vn 0.0000 0.3697 0.9291
vn 0.0000 0.0000 1.0000
vn 0.0000 0.9098 0.4149
vn 0.0000 0.6883 0.7254
vn -0.5461 0.3697 0.7517
vn -0.5878 0.0000 0.8090
vn -0.2439 0.9098 0.3356
vn -0.4264 0.6883 0.5869
vn -0.4264 -0.6883 0.5869
vn -0.2439 -0.9098 0.3356
vn -0.5461 -0.3697 0.7517
vn -0.6899 -0.6883 0.2242
vn -0.3946 -0.9098 0.1282
vn -0.9510 0.0000 0.3090
vn -0.8837 -0.3697 0.2871
vn -0.6899 0.6883 0.2242
vn -0.8837 0.3697 0.2871
vn -0.3946 0.9098 0.1282
vn -0.6899 0.6883 -0.2242
vn -0.8837 0.3697 -0.2871
vn -0.3946 0.9098 -0.1282
vn -0.3946 -0.9098 -0.1282
vn -0.8837 -0.3697 -0.2871
vn -0.6899 -0.6883 -0.2242
vn -0.9510 0.0000 -0.3090
vn -0.2439 -0.9098 -0.3356
vn -0.5461 -0.3697 -0.7517
vn -0.4264 -0.6883 -0.5869
vn -0.5461 0.3697 -0.7517
vn -0.5878 0.0000 -0.8090
vn -0.2439 0.9098 -0.3356
vn -0.4264 0.6883 -0.5869
usemtl None
s 1
f 69/1/1 68/2/2 3/3/3 4/4/4
f 67/5/5 44/6/6 2/7/7
f 66/8/8 72/9/9 8/10/10
f 71/11/11 1/12/12 6/13/13 7/14/14
f 70/15/15 69/1/1 4/4/4 5/16/16
f 68/2/2 67/5/5 2/7/7 3/3/3
f 72/9/9 71/11/11 7/14/14 8/10/10
f 1/12/12 70/15/15 5/16/16 6/13/13
f 7/14/14 6/13/13 13/17/17 14/18/18
f 5/16/16 4/4/4 11/19/19 12/20/20
f 3/3/3 2/7/7 9/21/21 10/22/22
f 8/10/10 7/14/14 14/18/18 15/23/23
f 6/13/13 5/16/16 12/20/20 13/17/17
f 4/4/4 3/3/3 10/22/22 11/19/19
f 2/7/7 44/24/6 9/21/21
f 66/25/8 8/10/10 15/23/23
f 15/23/23 14/18/18 21/26/24 22/27/25
f 13/17/17 12/20/20 19/28/26 20/29/27
f 11/19/19 10/22/22 17/30/28 18/31/29
f 9/21/21 44/32/6 16/33/30
f 66/34/8 15/23/23 22/27/25
f 14/18/18 13/17/17 20/29/27 21/26/24
f 12/20/20 11/19/19 18/31/29 19/28/26
f 10/22/22 9/21/21 16/33/30 17/30/28
f 20/29/27 19/28/26 26/35/31 27/36/32
f 18/31/29 17/30/28 24/37/33 25/38/34
f 16/33/30 44/39/6 23/40/35
f 66/41/8 22/27/25 29/42/36
f 21/26/24 20/29/27 27/36/32 28/43/37
f 19/28/26 18/31/29 25/38/34 26/35/31
f 17/30/28 16/33/30 23/40/35 24/37/33
f 22/27/25 21/26/24 28/43/37 29/42/36
f 66/44/8 29/42/36 36/45/38
f 28/43/37 27/36/32 34/46/39 35/47/40
f 26/35/31 25/38/34 32/48/41 33/49/42
f 24/37/33 23/40/35 30/50/43 31/51/44
f 29/42/36 28/43/37 35/47/40 36/45/38
f 27/36/32 26/35/31 33/49/42 34/46/39
f 25/38/34 24/37/33 31/51/44 32/48/41
f 23/40/35 44/52/6 30/50/43
f 33/49/42 32/48/41 39/53/45 40/54/46
f 31/51/44 30/50/43 37/55/47 38/56/48
f 36/45/38 35/47/40 42/57/49 43/58/50
f 34/46/39 33/49/42 40/54/46 41/59/51
f 32/48/41 31/51/44 38/56/48 39/53/45
f 30/50/43 44/60/6 37/55/47
f 66/61/8 36/45/38 43/58/50
f 35/47/40 34/46/39 41/59/51 42/57/49
f 43/58/50 42/57/49 50/62/52 51/63/53
f 41/59/51 40/54/46 48/64/54 49/65/55
f 39/53/45 38/56/48 46/66/56 47/67/57
f 37/55/47 44/68/6 45/69/58
f 66/70/8 43/58/50 51/63/53
f 42/57/49 41/59/51 49/65/55 50/62/52
f 40/54/46 39/53/45 47/67/57 48/64/54
f 38/56/48 37/55/47 45/69/58 46/66/56
f 47/71/57 46/72/56 53/73/59 54/74/60
f 45/75/58 44/76/6 52/77/61
f 66/78/8 51/79/53 58/80/62
f 50/81/52 49/82/55 56/83/63 57/84/64
f 48/85/54 47/71/57 54/74/60 55/86/65
f 46/72/56 45/75/58 52/77/61 53/73/59
f 51/79/53 50/81/52 57/84/64 58/80/62
f 49/82/55 48/85/54 55/86/65 56/83/63
f 66/87/8 58/80/62 65/88/66
f 57/84/64 56/83/63 63/89/67 64/90/68
f 55/86/65 54/74/60 61/91/69 62/92/70
f 53/73/59 52/77/61 59/93/71 60/94/72
f 58/80/62 57/84/64 64/90/68 65/88/66
f 56/83/63 55/86/65 62/92/70 63/89/67
f 54/74/60 53/73/59 60/94/72 61/91/69
f 52/77/61 44/95/6 59/93/71
f 60/94/72 59/93/71 67/5/5 68/2/2
f 65/88/66 64/90/68 71/11/11 72/9/9
f 63/89/67 62/92/70 70/15/15 1/12/12
f 61/91/69 60/94/72 68/2/2 69/1/1
f 59/93/71 44/96/6 67/5/5
f 66/97/8 65/88/66 72/9/9
f 64/90/68 63/89/67 1/12/12 71/11/11
f 62/92/70 61/91/69 69/1/1 70/15/15
