# Blender v2.80 (sub 75) OBJ File: 'multi-cube.blend'
# www.blender.org
mtllib multi-cube.mtl
o Cube.002
v -2.000000 1.000000 -1.000000
v -2.000000 -1.000000 -1.000000
v -2.000000 1.000000 1.000000
v -2.000000 -1.000000 1.000000
v -4.000000 1.000000 -1.000000
v -4.000000 -1.000000 -1.000000
v -4.000000 1.000000 1.000000
v -4.000000 -1.000000 1.000000
vt 0.749957 0.625009
vt 0.749957 0.375034
vt 0.999913 0.375034
vt 0.999913 0.625009
vt 0.250043 0.625009
vt 0.000087 0.625009
vt 0.000087 0.375034
vt 0.250043 0.375034
vt 0.250043 0.125058
vt 0.500000 0.125058
vt 0.500000 0.375034
vt 0.500000 0.625009
vt 0.500000 0.874985
vt 0.250043 0.874985
vn 0.0000 1.0000 0.0000
vn 0.0000 0.0000 1.0000
vn -1.0000 0.0000 0.0000
vn 0.0000 -1.0000 0.0000
vn 1.0000 0.0000 0.0000
vn 0.0000 0.0000 -1.0000
usemtl Material
s off
f 1/1/1 5/2/1 7/3/1 3/4/1
f 4/5/2 3/6/2 7/7/2 8/8/2
f 8/8/3 7/9/3 5/10/3 6/11/3
f 6/11/4 2/12/4 4/5/4 8/8/4
f 2/12/5 1/13/5 3/14/5 4/5/5
f 6/11/6 5/2/6 1/1/6 2/12/6
o Cube.000_Cube.003
v 1.000000 1.000000 -1.000000
v 1.000000 -1.000000 -1.000000
v 1.000000 1.000000 1.000000
v 1.000000 -1.000000 1.000000
v -1.000000 1.000000 -1.000000
v -1.000000 -1.000000 -1.000000
v -1.000000 1.000000 1.000000
v -1.000000 -1.000000 1.000000
vt 0.749957 0.625009
vt 0.749957 0.375034
vt 0.999913 0.375034
vt 0.999913 0.625009
vt 0.250043 0.625009
vt 0.000087 0.625009
vt 0.000087 0.375034
vt 0.250043 0.375034
vt 0.250043 0.125058
vt 0.500000 0.125058
vt 0.500000 0.375034
vt 0.500000 0.625009
vt 0.500000 0.874985
vt 0.250043 0.874985
vn 0.0000 1.0000 0.0000
vn 0.0000 0.0000 1.0000
vn -1.0000 0.0000 0.0000
vn 0.0000 -1.0000 0.0000
vn 1.0000 0.0000 0.0000
vn 0.0000 0.0000 -1.0000
usemtl Material
s off
f 9/15/7 13/16/7 15/17/7 11/18/7
f 12/19/8 11/20/8 15/21/8 16/22/8
f 16/22/9 15/23/9 13/24/9 14/25/9
f 14/25/10 10/26/10 12/19/10 16/22/10
f 10/26/11 9/27/11 11/28/11 12/19/11
f 14/25/12 13/16/12 9/15/12 10/26/12
o Cube.001_Cube.004
v 4.000000 1.000000 -1.000000
v 4.000000 -1.000000 -1.000000
v 4.000000 1.000000 1.000000
v 4.000000 -1.000000 1.000000
v 2.000000 1.000000 -1.000000
v 2.000000 -1.000000 -1.000000
v 2.000000 1.000000 1.000000
v 2.000000 -1.000000 1.000000
vt 0.749957 0.625009
vt 0.749957 0.375034
vt 0.999913 0.375034
vt 0.999913 0.625009
vt 0.250043 0.625009
vt 0.000087 0.625009
vt 0.000087 0.375034
vt 0.250043 0.375034
vt 0.250043 0.125058
vt 0.500000 0.125058
vt 0.500000 0.375034
vt 0.500000 0.625009
vt 0.500000 0.874985
vt 0.250043 0.874985
vn 0.0000 1.0000 0.0000
vn 0.0000 0.0000 1.0000
vn -1.0000 0.0000 0.0000
vn 0.0000 -1.0000 0.0000
vn 1.0000 0.0000 0.0000
vn 0.0000 0.0000 -1.0000
usemtl Material
s off
f 17/29/13 21/30/13 23/31/13 19/32/13
f 20/33/14 19/34/14 23/35/14 24/36/14
f 24/36/15 23/37/15 21/38/15 22/39/15
f 22/39/16 18/40/16 20/33/16 24/36/16
f 18/40/17 17/41/17 19/42/17 20/33/17
f 22/39/18 21/30/18 17/29/18 18/40/18
